<svg xmlns="http://www.w3.org/2000/svg" xmlns:xlink="http://www.w3.org/1999/xlink" width="300" height="219" viewBox="0 0 300 219"><defs><clipPath id="b"><rect width="300" height="219"/></clipPath></defs><g id="a" clip-path="url(#b)"><path d="M143.9,0l143.9,211.058L143.9,163.626,0,211.058Z" transform="translate(6.097 3.971)" fill="#ffd830"/><g transform="translate(-1120.99 -463.518)"><path d="M-6808.029,682.039h0l-148.989-49.11-148.99,49.109,51.174-75.055v7.536h17.431a31.386,31.386,0,0,0,11.378-1.953,23.265,23.265,0,0,0,8.594-5.737,25.575,25.575,0,0,0,5.468-9.327,39.406,39.406,0,0,0,1.9-12.769V573.258a39.622,39.622,0,0,0-1.9-12.792,25.974,25.974,0,0,0-5.063-8.934l60.009-88.014,54.481,79.906h-.54l.048,9.912,7.255.008-6.763-9.92h47.312v9.962l-18.157-.019.022,32.85-11.75-17.232v-15.63l-10.665-.011,10.665,15.641v45.533h11.769l-.019-28.3,65.332,95.82Zm-130.4-94.815h9.68l11.561,27.294h12.7v-.635l-13.128-29.677a19.944,19.944,0,0,0,4.583-3.16,18.209,18.209,0,0,0,4.565-6.811,25.688,25.688,0,0,0,1.587-9.375,24.749,24.749,0,0,0-2.562-11.792,16.856,16.856,0,0,0-7.447-7.2,26.547,26.547,0,0,0-11.913-2.441H-6950.3v71.094h11.865V587.225Zm-59.62-43.8v71.094h38.282l-.048-9.912h-26.374l-.043-61.182h-11.816Zm-56.786,63.558V543.424h17.919a29.879,29.879,0,0,1,11.036,1.953,23.194,23.194,0,0,1,8.472,5.737c.133.143.261.284.381.418l-6.569,9.635a13.658,13.658,0,0,0-1.721-3.119,10.678,10.678,0,0,0-4.664-3.515,18.828,18.828,0,0,0-6.934-1.147h-6.054V589.58l19.371-28.411a20.014,20.014,0,0,1,.917,2.983,41.1,41.1,0,0,1,.854,9.008v11.572a35.232,35.232,0,0,1-1.512,11.232,11.965,11.965,0,0,1-4.933,6.518,17.228,17.228,0,0,1-9.131,2.124h-5.566V589.58l-11.863,17.4Zm125.731-29.72h-9.325V553.386h9.62a10.231,10.231,0,0,1,5.81,1.489,8.605,8.605,0,0,1,3.223,4.2,18.082,18.082,0,0,1,1.025,6.372,15.436,15.436,0,0,1-1.148,6.1,9.272,9.272,0,0,1-3.442,4.2A10.3,10.3,0,0,1-6929.106,577.262Z" transform="translate(8228.01 0.482)" fill="#171717"/></g></g></svg>